<?xml version="1.0" standalone="no"?>
<!DOCTYPE svg PUBLIC "-//W3C//DTD SVG 1.1//EN"
  "http://www.w3.org/Graphics/SVG/1.1/DTD/svg11.dtd">
<svg xmlns="http://www.w3.org/2000/svg" version="1.1"
     width="807px" height="625px" viewBox="-15 -336 807 635">
  <defs>
    <style type="text/css"><![CDATA[
      .markmap-node {
        cursor: pointer;
      }

      .markmap-node-circle {
        fill: #fff;
        stroke-width: 1.5px;
      }

      .markmap-node-text {
        fill:  #000;
        font: 10px sans-serif;
      }

      .markmap-link {
        fill: none;
      }
    ]]></style>
  </defs>
  <g><path class="markmap-link" stroke="#1f77b4" stroke-width="1.5" d="M219.0732421875,246.875C249.0732421875,246.875 249.0732421875,209.375 279.0732421875,209.375"></path><path class="markmap-link" stroke="#1f77b4" stroke-width="1.5" d="M219.0732421875,246.875C249.0732421875,246.875 249.0732421875,224.375 279.0732421875,224.375"></path><path class="markmap-link" stroke="#1f77b4" stroke-width="1.5" d="M219.0732421875,246.875C249.0732421875,246.875 249.0732421875,239.375 279.0732421875,239.375"></path><path class="markmap-link" stroke="#1f77b4" stroke-width="1.5" d="M219.0732421875,246.875C249.0732421875,246.875 249.0732421875,254.375 279.0732421875,254.375"></path><path class="markmap-link" stroke="#1f77b4" stroke-width="1.5" d="M219.0732421875,246.875C249.0732421875,246.875 249.0732421875,269.375 279.0732421875,269.375"></path><path class="markmap-link" stroke="#1f77b4" stroke-width="1.5" d="M219.0732421875,246.875C249.0732421875,246.875 249.0732421875,284.375 279.0732421875,284.375"></path><path class="markmap-link" stroke="#aec7e8" stroke-width="1.5" d="M217.4033203125,159.375C247.4033203125,159.375 247.4033203125,129.375 277.4033203125,129.375"></path><path class="markmap-link" stroke="#aec7e8" stroke-width="1.5" d="M217.4033203125,159.375C247.4033203125,159.375 247.4033203125,144.375 277.4033203125,144.375"></path><path class="markmap-link" stroke="#aec7e8" stroke-width="1.5" d="M217.4033203125,159.375C247.4033203125,159.375 247.4033203125,159.375 277.4033203125,159.375"></path><path class="markmap-link" stroke="#aec7e8" stroke-width="1.5" d="M217.4033203125,159.375C247.4033203125,159.375 247.4033203125,174.375 277.4033203125,174.375"></path><path class="markmap-link" stroke="#aec7e8" stroke-width="1.5" d="M217.4033203125,159.375C247.4033203125,159.375 247.4033203125,189.375 277.4033203125,189.375"></path><path class="markmap-link" stroke="#ff7f0e" stroke-width="1.5" d="M208.51171875,64.375C238.51171875,64.375 238.51171875,19.375 268.51171875,19.375"></path><path class="markmap-link" stroke="#ff7f0e" stroke-width="1.5" d="M208.51171875,64.375C238.51171875,64.375 238.51171875,34.375 268.51171875,34.375"></path><path class="markmap-link" stroke="#ff7f0e" stroke-width="1.5" d="M208.51171875,64.375C238.51171875,64.375 238.51171875,49.375 268.51171875,49.375"></path><path class="markmap-link" stroke="#ff7f0e" stroke-width="1.5" d="M208.51171875,64.375C238.51171875,64.375 238.51171875,64.375 268.51171875,64.375"></path><path class="markmap-link" stroke="#ff7f0e" stroke-width="1.5" d="M208.51171875,64.375C238.51171875,64.375 238.51171875,79.375 268.51171875,79.375"></path><path class="markmap-link" stroke="#ff7f0e" stroke-width="1.5" d="M208.51171875,64.375C238.51171875,64.375 238.51171875,94.375 268.51171875,94.375"></path><path class="markmap-link" stroke="#ff7f0e" stroke-width="1.5" d="M208.51171875,64.375C238.51171875,64.375 238.51171875,109.375 268.51171875,109.375"></path><path class="markmap-link" stroke="#ffbb78" stroke-width="1.5" d="M490.8955078125,-8.125C520.8955078125,-8.125 520.8955078125,-30.625 550.8955078125,-30.625"></path><path class="markmap-link" stroke="#ffbb78" stroke-width="1.5" d="M490.8955078125,-8.125C520.8955078125,-8.125 520.8955078125,-15.625 550.8955078125,-15.625"></path><path class="markmap-link" stroke="#ffbb78" stroke-width="1.5" d="M490.8955078125,-8.125C520.8955078125,-8.125 520.8955078125,-0.625 550.8955078125,-0.625"></path><path class="markmap-link" stroke="#ffbb78" stroke-width="1.5" d="M490.8955078125,-8.125C520.8955078125,-8.125 520.8955078125,14.375 550.8955078125,14.375"></path><path class="markmap-link" stroke="#ffbb78" stroke-width="1.5" d="M371.09765625,-0.625C401.09765625,-0.625 401.09765625,-28.125 431.09765625,-28.125"></path><path class="markmap-link" stroke="#ffbb78" stroke-width="1.5" d="M371.09765625,-0.625C401.09765625,-0.625 401.09765625,-8.125 431.09765625,-8.125"></path><path class="markmap-link" stroke="#ffbb78" stroke-width="1.5" d="M371.09765625,-0.625C401.09765625,-0.625 401.09765625,11.875 431.09765625,11.875"></path><path class="markmap-link" stroke="#ffbb78" stroke-width="1.5" d="M371.09765625,-0.625C401.09765625,-0.625 401.09765625,26.875 431.09765625,26.875"></path><path class="markmap-link" stroke="#ffbb78" stroke-width="1.5" d="M329.4130859375,-63.125C359.4130859375,-63.125 359.4130859375,-78.125 389.4130859375,-78.125"></path><path class="markmap-link" stroke="#ffbb78" stroke-width="1.5" d="M329.4130859375,-63.125C359.4130859375,-63.125 359.4130859375,-63.125 389.4130859375,-63.125"></path><path class="markmap-link" stroke="#ffbb78" stroke-width="1.5" d="M329.4130859375,-63.125C359.4130859375,-63.125 359.4130859375,-48.125 389.4130859375,-48.125"></path><path class="markmap-link" stroke="#ffbb78" stroke-width="1.5" d="M634.0673828125,-115.625C664.0673828125,-115.625 664.0673828125,-123.125 694.0673828125,-123.125"></path><path class="markmap-link" stroke="#ffbb78" stroke-width="1.5" d="M634.0673828125,-115.625C664.0673828125,-115.625 664.0673828125,-108.125 694.0673828125,-108.125"></path><path class="markmap-link" stroke="#ffbb78" stroke-width="1.5" d="M514.2548828125,-98.125C544.2548828125,-98.125 544.2548828125,-115.625 574.2548828125,-115.625"></path><path class="markmap-link" stroke="#ffbb78" stroke-width="1.5" d="M514.2548828125,-98.125C544.2548828125,-98.125 544.2548828125,-95.625 574.2548828125,-95.625"></path><path class="markmap-link" stroke="#ffbb78" stroke-width="1.5" d="M514.2548828125,-98.125C544.2548828125,-98.125 544.2548828125,-80.625 574.2548828125,-80.625"></path><path class="markmap-link" stroke="#ffbb78" stroke-width="1.5" d="M458.1220703125,-150.625C488.1220703125,-150.625 488.1220703125,-165.625 518.1220703125,-165.625"></path><path class="markmap-link" stroke="#ffbb78" stroke-width="1.5" d="M458.1220703125,-150.625C488.1220703125,-150.625 488.1220703125,-150.625 518.1220703125,-150.625"></path><path class="markmap-link" stroke="#ffbb78" stroke-width="1.5" d="M458.1220703125,-150.625C488.1220703125,-150.625 488.1220703125,-135.625 518.1220703125,-135.625"></path><path class="markmap-link" stroke="#ffbb78" stroke-width="1.5" d="M457.00390625,-208.125C487.00390625,-208.125 487.00390625,-230.625 517.00390625,-230.625"></path><path class="markmap-link" stroke="#ffbb78" stroke-width="1.5" d="M457.00390625,-208.125C487.00390625,-208.125 487.00390625,-215.625 517.00390625,-215.625"></path><path class="markmap-link" stroke="#ffbb78" stroke-width="1.5" d="M457.00390625,-208.125C487.00390625,-208.125 487.00390625,-200.625 517.00390625,-200.625"></path><path class="markmap-link" stroke="#ffbb78" stroke-width="1.5" d="M457.00390625,-208.125C487.00390625,-208.125 487.00390625,-185.625 517.00390625,-185.625"></path><path class="markmap-link" stroke="#ffbb78" stroke-width="1.5" d="M569.5751953125,-250.625C599.5751953125,-250.625 599.5751953125,-265.625 629.5751953125,-265.625"></path><path class="markmap-link" stroke="#ffbb78" stroke-width="1.5" d="M569.5751953125,-250.625C599.5751953125,-250.625 599.5751953125,-250.625 629.5751953125,-250.625"></path><path class="markmap-link" stroke="#ffbb78" stroke-width="1.5" d="M569.5751953125,-250.625C599.5751953125,-250.625 599.5751953125,-235.625 629.5751953125,-235.625"></path><path class="markmap-link" stroke="#ffbb78" stroke-width="1.5" d="M454.220703125,-275.625C484.220703125,-275.625 484.220703125,-300.625 514.220703125,-300.625"></path><path class="markmap-link" stroke="#ffbb78" stroke-width="1.5" d="M454.220703125,-275.625C484.220703125,-275.625 484.220703125,-285.625 514.220703125,-285.625"></path><path class="markmap-link" stroke="#ffbb78" stroke-width="1.5" d="M454.220703125,-275.625C484.220703125,-275.625 484.220703125,-270.625 514.220703125,-270.625"></path><path class="markmap-link" stroke="#ffbb78" stroke-width="1.5" d="M454.220703125,-275.625C484.220703125,-275.625 484.220703125,-250.625 514.220703125,-250.625"></path><path class="markmap-link" stroke="#ffbb78" stroke-width="1.5" d="M356.654296875,-204.375C386.654296875,-204.375 386.654296875,-310.625 416.654296875,-310.625"></path><path class="markmap-link" stroke="#ffbb78" stroke-width="1.5" d="M356.654296875,-204.375C386.654296875,-204.375 386.654296875,-295.625 416.654296875,-295.625"></path><path class="markmap-link" stroke="#ffbb78" stroke-width="1.5" d="M356.654296875,-204.375C386.654296875,-204.375 386.654296875,-275.625 416.654296875,-275.625"></path><path class="markmap-link" stroke="#ffbb78" stroke-width="1.5" d="M356.654296875,-204.375C386.654296875,-204.375 386.654296875,-208.125 416.654296875,-208.125"></path><path class="markmap-link" stroke="#ffbb78" stroke-width="1.5" d="M356.654296875,-204.375C386.654296875,-204.375 386.654296875,-150.625 416.654296875,-150.625"></path><path class="markmap-link" stroke="#ffbb78" stroke-width="1.5" d="M356.654296875,-204.375C386.654296875,-204.375 386.654296875,-98.125 416.654296875,-98.125"></path><path class="markmap-link" stroke="#ffbb78" stroke-width="1.5" d="M227.3984375,-102.5C257.3984375,-102.5 257.3984375,-204.375 287.3984375,-204.375"></path><path class="markmap-link" stroke="#ffbb78" stroke-width="1.5" d="M227.3984375,-102.5C257.3984375,-102.5 257.3984375,-63.125 287.3984375,-63.125"></path><path class="markmap-link" stroke="#ffbb78" stroke-width="1.5" d="M227.3984375,-102.5C257.3984375,-102.5 257.3984375,-0.625 287.3984375,-0.625"></path><path class="markmap-link" stroke="#2ca02c" stroke-width="1.5" d="M195.1572265625,-246.875C225.1572265625,-246.875 225.1572265625,-269.375 255.1572265625,-269.375"></path><path class="markmap-link" stroke="#2ca02c" stroke-width="1.5" d="M195.1572265625,-246.875C225.1572265625,-246.875 225.1572265625,-254.375 255.1572265625,-254.375"></path><path class="markmap-link" stroke="#2ca02c" stroke-width="1.5" d="M195.1572265625,-246.875C225.1572265625,-246.875 225.1572265625,-239.375 255.1572265625,-239.375"></path><path class="markmap-link" stroke="#2ca02c" stroke-width="1.5" d="M195.1572265625,-246.875C225.1572265625,-246.875 225.1572265625,-224.375 255.1572265625,-224.375"></path><path class="markmap-link" stroke="#2ca02c" stroke-width="2" d="M98.7041015625,0C128.7041015625,0 128.7041015625,-246.875 158.7041015625,-246.875"></path><path class="markmap-link" stroke="#ffbb78" stroke-width="2" d="M98.7041015625,0C128.7041015625,0 128.7041015625,-102.5 158.7041015625,-102.5"></path><path class="markmap-link" stroke="#ff7f0e" stroke-width="2" d="M98.7041015625,0C128.7041015625,0 128.7041015625,64.375 158.7041015625,64.375"></path><path class="markmap-link" stroke="#aec7e8" stroke-width="2" d="M98.7041015625,0C128.7041015625,0 128.7041015625,159.375 158.7041015625,159.375"></path><path class="markmap-link" stroke="#1f77b4" stroke-width="2" d="M98.7041015625,0C128.7041015625,0 128.7041015625,246.875 158.7041015625,246.875"></path><g class="markmap-node" transform="translate(279.0732421875,284.375)"><rect class="markmap-node-rect" y="-0.75" x="-1" width="93.4921875" height="1.5" fill="#1f77b4"></rect><circle class="markmap-node-circle" cx="91.4921875" stroke="#1f77b4" r="4.5" style="display: none;"></circle><text class="markmap-node-text" x="10" dy="-5" text-anchor="start" style="fill-opacity: 1;">Image recognition</text></g><g class="markmap-node" transform="translate(279.0732421875,269.375)"><rect class="markmap-node-rect" y="-0.75" x="-1" width="79.009765625" height="1.5" fill="#1f77b4"></rect><circle class="markmap-node-circle" cx="77.009765625" stroke="#1f77b4" r="4.5" style="display: none;"></circle><text class="markmap-node-text" x="10" dy="-5" text-anchor="start" style="fill-opacity: 1;">HTML/CSS/JS</text></g><g class="markmap-node" transform="translate(279.0732421875,254.375)"><rect class="markmap-node-rect" y="-0.75" x="-1" width="49.009765625" height="1.5" fill="#1f77b4"></rect><circle class="markmap-node-circle" cx="47.009765625" stroke="#1f77b4" r="4.5" style="display: none;"></circle><text class="markmap-node-text" x="10" dy="-5" text-anchor="start" style="fill-opacity: 1;">NOSQL</text></g><g class="markmap-node" transform="translate(279.0732421875,239.375)"><rect class="markmap-node-rect" y="-0.75" x="-1" width="50.11328125" height="1.5" fill="#1f77b4"></rect><circle class="markmap-node-circle" cx="48.11328125" stroke="#1f77b4" r="4.5" style="display: none;"></circle><text class="markmap-node-text" x="10" dy="-5" text-anchor="start" style="fill-opacity: 1;">RDBMS</text></g><g class="markmap-node" transform="translate(279.0732421875,224.375)"><rect class="markmap-node-rect" y="-0.75" x="-1" width="26.783203125" height="1.5" fill="#1f77b4"></rect><circle class="markmap-node-circle" cx="24.783203125" stroke="#1f77b4" r="4.5" style="display: none;"></circle><text class="markmap-node-text" x="10" dy="-5" text-anchor="start" style="fill-opacity: 1;">C#</text></g><g class="markmap-node" transform="translate(279.0732421875,209.375)"><rect class="markmap-node-rect" y="-0.75" x="-1" width="46.24609375" height="1.5" fill="#1f77b4"></rect><circle class="markmap-node-circle" cx="44.24609375" stroke="#1f77b4" r="4.5" style="display: none;"></circle><text class="markmap-node-text" x="10" dy="-5" text-anchor="start" style="fill-opacity: 1;">node.js</text></g><g class="markmap-node" transform="translate(158.7041015625,246.875)"><rect class="markmap-node-rect" y="-1" x="-1" width="62.369140625" height="2" fill="#1f77b4"></rect><circle class="markmap-node-circle" cx="60.369140625" stroke="#1f77b4" r="4.5"></circle><text class="markmap-node-text" x="10" dy="-5" text-anchor="start" style="fill-opacity: 1;">technology</text></g><g class="markmap-node" transform="translate(277.4033203125,189.375)"><rect class="markmap-node-rect" y="-0.75" x="-1" width="30.1181640625" height="1.5" fill="#aec7e8"></rect><circle class="markmap-node-circle" cx="28.1181640625" stroke="#aec7e8" r="4.5" style="display: none;"></circle><text class="markmap-node-text" x="10" dy="-5" text-anchor="start" style="fill-opacity: 1;">test</text></g><g class="markmap-node" transform="translate(277.4033203125,174.375)"><rect class="markmap-node-rect" y="-0.75" x="-1" width="2" height="1.5" fill="#aec7e8"></rect><circle class="markmap-node-circle" cx="0" stroke="#aec7e8" r="4.5" style="display: none;"></circle><text class="markmap-node-text" x="10" dy="-5" text-anchor="start" style="fill-opacity: 1;"></text></g><g class="markmap-node" transform="translate(277.4033203125,159.375)"><rect class="markmap-node-rect" y="-0.75" x="-1" width="2" height="1.5" fill="#aec7e8"></rect><circle class="markmap-node-circle" cx="0" stroke="#aec7e8" r="4.5" style="display: none;"></circle><text class="markmap-node-text" x="10" dy="-5" text-anchor="start" style="fill-opacity: 1;"></text></g><g class="markmap-node" transform="translate(277.4033203125,144.375)"><rect class="markmap-node-rect" y="-0.75" x="-1" width="2" height="1.5" fill="#aec7e8"></rect><circle class="markmap-node-circle" cx="0" stroke="#aec7e8" r="4.5" style="display: none;"></circle><text class="markmap-node-text" x="10" dy="-5" text-anchor="start" style="fill-opacity: 1;"></text></g><g class="markmap-node" transform="translate(277.4033203125,129.375)"><rect class="markmap-node-rect" y="-0.75" x="-1" width="2" height="1.5" fill="#aec7e8"></rect><circle class="markmap-node-circle" cx="0" stroke="#aec7e8" r="4.5" style="display: none;"></circle><text class="markmap-node-text" x="10" dy="-5" text-anchor="start" style="fill-opacity: 1;"></text></g><g class="markmap-node" transform="translate(158.7041015625,159.375)"><rect class="markmap-node-rect" y="-1" x="-1" width="60.69921875" height="2" fill="#aec7e8"></rect><circle class="markmap-node-circle" cx="58.69921875" stroke="#aec7e8" r="4.5"></circle><text class="markmap-node-text" x="10" dy="-5" text-anchor="start" style="fill-opacity: 1;">operations</text></g><g class="markmap-node" transform="translate(268.51171875,109.375)"><rect class="markmap-node-rect" y="-0.75" x="-1" width="30.1181640625" height="1.5" fill="#ff7f0e"></rect><circle class="markmap-node-circle" cx="28.1181640625" stroke="#ff7f0e" r="4.5" style="display: none;"></circle><text class="markmap-node-text" x="10" dy="-5" text-anchor="start" style="fill-opacity: 1;">API</text></g><g class="markmap-node" transform="translate(268.51171875,94.375)"><rect class="markmap-node-rect" y="-0.75" x="-1" width="60.69921875" height="1.5" fill="#ff7f0e"></rect><circle class="markmap-node-circle" cx="58.69921875" stroke="#ff7f0e" r="4.5" style="display: none;"></circle><text class="markmap-node-text" x="10" dy="-5" text-anchor="start" style="fill-opacity: 1;">integration</text></g><g class="markmap-node" transform="translate(268.51171875,79.375)"><rect class="markmap-node-rect" y="-0.75" x="-1" width="107.3837890625" height="1.5" fill="#ff7f0e"></rect><circle class="markmap-node-circle" cx="105.3837890625" stroke="#ff7f0e" r="4.5" style="display: none;"></circle><text class="markmap-node-text" x="10" dy="-5" text-anchor="start" style="fill-opacity: 1;">Ethereum blockchain</text></g><g class="markmap-node" transform="translate(268.51171875,64.375)"><rect class="markmap-node-rect" y="-0.75" x="-1" width="84.0341796875" height="1.5" fill="#ff7f0e"></rect><circle class="markmap-node-circle" cx="82.0341796875" stroke="#ff7f0e" r="4.5" style="display: none;"></circle><text class="markmap-node-text" x="10" dy="-5" text-anchor="start" style="fill-opacity: 1;">delivery module</text></g><g class="markmap-node" transform="translate(268.51171875,49.375)"><rect class="markmap-node-rect" y="-0.75" x="-1" width="101.8125" height="1.5" fill="#ff7f0e"></rect><circle class="markmap-node-circle" cx="99.8125" stroke="#ff7f0e" r="4.5" style="display: none;"></circle><text class="markmap-node-text" x="10" dy="-5" text-anchor="start" style="fill-opacity: 1;">ecommerce module</text></g><g class="markmap-node" transform="translate(268.51171875,34.375)"><rect class="markmap-node-rect" y="-0.75" x="-1" width="116.8271484375" height="1.5" fill="#ff7f0e"></rect><circle class="markmap-node-circle" cx="114.8271484375" stroke="#ff7f0e" r="4.5" style="display: none;"></circle><text class="markmap-node-text" x="10" dy="-5" text-anchor="start" style="fill-opacity: 1;">communication module</text></g><g class="markmap-node" transform="translate(268.51171875,19.375)"><rect class="markmap-node-rect" y="-0.75" x="-1" width="87.9306640625" height="1.5" fill="#ff7f0e"></rect><circle class="markmap-node-circle" cx="85.9306640625" stroke="#ff7f0e" r="4.5" style="display: none;"></circle><text class="markmap-node-text" x="10" dy="-5" text-anchor="start" style="fill-opacity: 1;">payment module</text></g><g class="markmap-node" transform="translate(158.7041015625,64.375)"><rect class="markmap-node-rect" y="-1" x="-1" width="51.8076171875" height="2" fill="#ff7f0e"></rect><circle class="markmap-node-circle" cx="49.8076171875" stroke="#ff7f0e" r="4.5"></circle><text class="markmap-node-text" x="10" dy="-5" text-anchor="start" style="fill-opacity: 1;">backend</text></g><g class="markmap-node" transform="translate(431.09765625,26.875)"><rect class="markmap-node-rect" y="-0.75" x="-1" width="71.275390625" height="1.5" fill="#ffbb78"></rect><circle class="markmap-node-circle" cx="69.275390625" stroke="#ffbb78" r="4.5" style="display: none;"></circle><text class="markmap-node-text" x="10" dy="-5" text-anchor="start" style="fill-opacity: 1;">loan enabled</text></g><g class="markmap-node" transform="translate(431.09765625,11.875)"><rect class="markmap-node-rect" y="-0.75" x="-1" width="89.60546875" height="1.5" fill="#ffbb78"></rect><circle class="markmap-node-circle" cx="87.60546875" stroke="#ffbb78" r="4.5" style="display: none;"></circle><text class="markmap-node-text" x="10" dy="-5" text-anchor="start" style="fill-opacity: 1;">wallet generation</text></g><g class="markmap-node" transform="translate(550.8955078125,14.375)"><rect class="markmap-node-rect" y="-0.75" x="-1" width="73.47265625" height="1.5" fill="#ffbb78"></rect><circle class="markmap-node-circle" cx="71.47265625" stroke="#ffbb78" r="4.5" style="display: none;"></circle><text class="markmap-node-text" x="10" dy="-5" text-anchor="start" style="fill-opacity: 1;">Photo with ID</text></g><g class="markmap-node" transform="translate(550.8955078125,-0.625)"><rect class="markmap-node-rect" y="-0.75" x="-1" width="32.33984375" height="1.5" fill="#ffbb78"></rect><circle class="markmap-node-circle" cx="30.33984375" stroke="#ffbb78" r="4.5" style="display: none;"></circle><text class="markmap-node-text" x="10" dy="-5" text-anchor="start" style="fill-opacity: 1;">ID 2</text></g><g class="markmap-node" transform="translate(550.8955078125,-15.625)"><rect class="markmap-node-rect" y="-0.75" x="-1" width="24" height="1.5" fill="#ffbb78"></rect><circle class="markmap-node-circle" cx="22" stroke="#ffbb78" r="4.5" style="display: none;"></circle><text class="markmap-node-text" x="10" dy="-5" text-anchor="start" style="fill-opacity: 1;">ID</text></g><g class="markmap-node" transform="translate(550.8955078125,-30.625)"><rect class="markmap-node-rect" y="-0.75" x="-1" width="40.1328125" height="1.5" fill="#ffbb78"></rect><circle class="markmap-node-circle" cx="38.1328125" stroke="#ffbb78" r="4.5" style="display: none;"></circle><text class="markmap-node-text" x="10" dy="-5" text-anchor="start" style="fill-opacity: 1;">Photo</text></g><g class="markmap-node" transform="translate(431.09765625,-8.125)"><rect class="markmap-node-rect" y="-0.75" x="-1" width="61.7978515625" height="1.5" fill="#ffbb78"></rect><circle class="markmap-node-circle" cx="59.7978515625" stroke="#ffbb78" r="4.5"></circle><text class="markmap-node-text" x="10" dy="-5" text-anchor="start" style="fill-opacity: 1;">verification</text></g><g class="markmap-node" transform="translate(431.09765625,-28.125)"><rect class="markmap-node-rect" y="-0.75" x="-1" width="63.4677734375" height="1.5" fill="#ffbb78"></rect><circle class="markmap-node-circle" cx="61.4677734375" stroke="#ffbb78" r="4.5" style="display: none;"></circle><text class="markmap-node-text" x="10" dy="-5" text-anchor="start" style="fill-opacity: 1;">user profile</text></g><g class="markmap-node" transform="translate(287.3984375,-0.625)"><rect class="markmap-node-rect" y="-0.75" x="-1" width="85.69921875" height="1.5" fill="#ffbb78"></rect><circle class="markmap-node-circle" cx="83.69921875" stroke="#ffbb78" r="4.5"></circle><text class="markmap-node-text" x="10" dy="-5" text-anchor="start" style="fill-opacity: 1;">user registration</text></g><g class="markmap-node" transform="translate(389.4130859375,-48.125)"><rect class="markmap-node-rect" y="-0.75" x="-1" width="65.6943359375" height="1.5" fill="#ffbb78"></rect><circle class="markmap-node-circle" cx="63.6943359375" stroke="#ffbb78" r="4.5" style="display: none;"></circle><text class="markmap-node-text" x="10" dy="-5" text-anchor="start" style="fill-opacity: 1;">by requests</text></g><g class="markmap-node" transform="translate(389.4130859375,-63.125)"><rect class="markmap-node-rect" y="-0.75" x="-1" width="52.1689453125" height="1.5" fill="#ffbb78"></rect><circle class="markmap-node-circle" cx="50.1689453125" stroke="#ffbb78" r="4.5" style="display: none;"></circle><text class="markmap-node-text" x="10" dy="-5" text-anchor="start" style="fill-opacity: 1;">by offers</text></g><g class="markmap-node" transform="translate(389.4130859375,-78.125)"><rect class="markmap-node-rect" y="-0.75" x="-1" width="46.79296875" height="1.5" fill="#ffbb78"></rect><circle class="markmap-node-circle" cx="44.79296875" stroke="#ffbb78" r="4.5" style="display: none;"></circle><text class="markmap-node-text" x="10" dy="-5" text-anchor="start" style="fill-opacity: 1;">by user</text></g><g class="markmap-node" transform="translate(287.3984375,-63.125)"><rect class="markmap-node-rect" y="-0.75" x="-1" width="44.0146484375" height="1.5" fill="#ffbb78"></rect><circle class="markmap-node-circle" cx="42.0146484375" stroke="#ffbb78" r="4.5"></circle><text class="markmap-node-text" x="10" dy="-5" text-anchor="start" style="fill-opacity: 1;">search</text></g><g class="markmap-node" transform="translate(574.2548828125,-80.625)"><rect class="markmap-node-rect" y="-0.75" x="-1" width="59.5859375" height="1.5" fill="#ffbb78"></rect><circle class="markmap-node-circle" cx="57.5859375" stroke="#ffbb78" r="4.5" style="display: none;"></circle><text class="markmap-node-text" x="10" dy="-5" text-anchor="start" style="fill-opacity: 1;">P2P loans</text></g><g class="markmap-node" transform="translate(574.2548828125,-95.625)"><rect class="markmap-node-rect" y="-0.75" x="-1" width="67.916015625" height="1.5" fill="#ffbb78"></rect><circle class="markmap-node-circle" cx="65.916015625" stroke="#ffbb78" r="4.5" style="display: none;"></circle><text class="markmap-node-text" x="10" dy="-5" text-anchor="start" style="fill-opacity: 1;">line of credit</text></g><g class="markmap-node" transform="translate(694.0673828125,-108.125)"><rect class="markmap-node-rect" y="-0.75" x="-1" width="81.6416015625" height="1.5" fill="#ffbb78"></rect><circle class="markmap-node-circle" cx="79.6416015625" stroke="#ffbb78" r="4.5" style="display: none;"></circle><text class="markmap-node-text" x="10" dy="-5" text-anchor="start" style="fill-opacity: 1;">offline approval</text></g><g class="markmap-node" transform="translate(694.0673828125,-123.125)"><rect class="markmap-node-rect" y="-0.75" x="-1" width="84.6005859375" height="1.5" fill="#ffbb78"></rect><circle class="markmap-node-circle" cx="82.6005859375" stroke="#ffbb78" r="4.5" style="display: none;"></circle><text class="markmap-node-text" x="10" dy="-5" text-anchor="start" style="fill-opacity: 1;">instant approval</text></g><g class="markmap-node" transform="translate(574.2548828125,-115.625)"><rect class="markmap-node-rect" y="-0.75" x="-1" width="61.8125" height="1.5" fill="#ffbb78"></rect><circle class="markmap-node-circle" cx="59.8125" stroke="#ffbb78" r="4.5"></circle><text class="markmap-node-text" x="10" dy="-5" text-anchor="start" style="fill-opacity: 1;">application</text></g><g class="markmap-node" transform="translate(416.654296875,-98.125)"><rect class="markmap-node-rect" y="-0.75" x="-1" width="99.6005859375" height="1.5" fill="#ffbb78"></rect><circle class="markmap-node-circle" cx="97.6005859375" stroke="#ffbb78" r="4.5"></circle><text class="markmap-node-text" x="10" dy="-5" text-anchor="start" style="fill-opacity: 1;">credit management</text></g><g class="markmap-node" transform="translate(518.1220703125,-135.625)"><rect class="markmap-node-rect" y="-0.75" x="-1" width="85.1474609375" height="1.5" fill="#ffbb78"></rect><circle class="markmap-node-circle" cx="83.1474609375" stroke="#ffbb78" r="4.5" style="display: none;"></circle><text class="markmap-node-text" x="10" dy="-5" text-anchor="start" style="fill-opacity: 1;">requested items</text></g><g class="markmap-node" transform="translate(518.1220703125,-150.625)"><rect class="markmap-node-rect" y="-0.75" x="-1" width="78.4482421875" height="1.5" fill="#ffbb78"></rect><circle class="markmap-node-circle" cx="76.4482421875" stroke="#ffbb78" r="4.5" style="display: none;"></circle><text class="markmap-node-text" x="10" dy="-5" text-anchor="start" style="fill-opacity: 1;">track my items</text></g><g class="markmap-node" transform="translate(518.1220703125,-165.625)"><rect class="markmap-node-rect" y="-0.75" x="-1" width="30.669921875" height="1.5" fill="#ffbb78"></rect><circle class="markmap-node-circle" cx="28.669921875" stroke="#ffbb78" r="4.5" style="display: none;"></circle><text class="markmap-node-text" x="10" dy="-5" text-anchor="start" style="fill-opacity: 1;">cart</text></g><g class="markmap-node" transform="translate(416.654296875,-150.625)"><rect class="markmap-node-rect" y="-0.75" x="-1" width="43.4677734375" height="1.5" fill="#ffbb78"></rect><circle class="markmap-node-circle" cx="41.4677734375" stroke="#ffbb78" r="4.5"></circle><text class="markmap-node-text" x="10" dy="-5" text-anchor="start" style="fill-opacity: 1;">buying</text></g><g class="markmap-node" transform="translate(517.00390625,-185.625)"><rect class="markmap-node-rect" y="-0.75" x="-1" width="51.2509765625" height="1.5" fill="#ffbb78"></rect><circle class="markmap-node-circle" cx="49.2509765625" stroke="#ffbb78" r="4.5" style="display: none;"></circle><text class="markmap-node-text" x="10" dy="-5" text-anchor="start" style="fill-opacity: 1;">shipping</text></g><g class="markmap-node" transform="translate(517.00390625,-200.625)"><rect class="markmap-node-rect" y="-0.75" x="-1" width="49.0244140625" height="1.5" fill="#ffbb78"></rect><circle class="markmap-node-circle" cx="47.0244140625" stroke="#ffbb78" r="4.5" style="display: none;"></circle><text class="markmap-node-text" x="10" dy="-5" text-anchor="start" style="fill-opacity: 1;">quantity</text></g><g class="markmap-node" transform="translate(517.00390625,-215.625)"><rect class="markmap-node-rect" y="-0.75" x="-1" width="66.255859375" height="1.5" fill="#ffbb78"></rect><circle class="markmap-node-circle" cx="64.255859375" stroke="#ffbb78" r="4.5" style="display: none;"></circle><text class="markmap-node-text" x="10" dy="-5" text-anchor="start" style="fill-opacity: 1;">product info</text></g><g class="markmap-node" transform="translate(517.00390625,-230.625)"><rect class="markmap-node-rect" y="-0.75" x="-1" width="107.3935546875" height="1.5" fill="#ffbb78"></rect><circle class="markmap-node-circle" cx="105.3935546875" stroke="#ffbb78" r="4.5" style="display: none;"></circle><text class="markmap-node-text" x="10" dy="-5" text-anchor="start" style="fill-opacity: 1;">catalog management</text></g><g class="markmap-node" transform="translate(416.654296875,-208.125)"><rect class="markmap-node-rect" y="-0.75" x="-1" width="42.349609375" height="1.5" fill="#ffbb78"></rect><circle class="markmap-node-circle" cx="40.349609375" stroke="#ffbb78" r="4.5"></circle><text class="markmap-node-text" x="10" dy="-5" text-anchor="start" style="fill-opacity: 1;">selling</text></g><g class="markmap-node" transform="translate(629.5751953125,-235.625)"><rect class="markmap-node-rect" y="-0.75" x="-1" width="84.5859375" height="1.5" fill="#ffbb78"></rect><circle class="markmap-node-circle" cx="82.5859375" stroke="#ffbb78" r="4.5" style="display: none;"></circle><text class="markmap-node-text" x="10" dy="-5" text-anchor="start" style="fill-opacity: 1;">payment history</text></g><g class="markmap-node" transform="translate(629.5751953125,-250.625)"><rect class="markmap-node-rect" y="-0.75" x="-1" width="85.1572265625" height="1.5" fill="#ffbb78"></rect><circle class="markmap-node-circle" cx="83.1572265625" stroke="#ffbb78" r="4.5" style="display: none;"></circle><text class="markmap-node-text" x="10" dy="-5" text-anchor="start" style="fill-opacity: 1;">send a payment</text></g><g class="markmap-node" transform="translate(629.5751953125,-265.625)"><rect class="markmap-node-rect" y="-0.75" x="-1" width="96.8271484375" height="1.5" fill="#ffbb78"></rect><circle class="markmap-node-circle" cx="94.8271484375" stroke="#ffbb78" r="4.5" style="display: none;"></circle><text class="markmap-node-text" x="10" dy="-5" text-anchor="start" style="fill-opacity: 1;">request a payment</text></g><g class="markmap-node" transform="translate(514.220703125,-250.625)"><rect class="markmap-node-rect" y="-0.75" x="-1" width="57.3544921875" height="1.5" fill="#ffbb78"></rect><circle class="markmap-node-circle" cx="55.3544921875" stroke="#ffbb78" r="4.5"></circle><text class="markmap-node-text" x="10" dy="-5" text-anchor="start" style="fill-opacity: 1;">payments</text></g><g class="markmap-node" transform="translate(514.220703125,-270.625)"><rect class="markmap-node-rect" y="-0.75" x="-1" width="67.3544921875" height="1.5" fill="#ffbb78"></rect><circle class="markmap-node-circle" cx="65.3544921875" stroke="#ffbb78" r="4.5" style="display: none;"></circle><text class="markmap-node-text" x="10" dy="-5" text-anchor="start" style="fill-opacity: 1;">QR scanner</text></g><g class="markmap-node" transform="translate(514.220703125,-285.625)"><rect class="markmap-node-rect" y="-0.75" x="-1" width="49.029296875" height="1.5" fill="#ffbb78"></rect><circle class="markmap-node-circle" cx="47.029296875" stroke="#ffbb78" r="4.5" style="display: none;"></circle><text class="markmap-node-text" x="10" dy="-5" text-anchor="start" style="fill-opacity: 1;">balance</text></g><g class="markmap-node" transform="translate(514.220703125,-300.625)"><rect class="markmap-node-rect" y="-0.75" x="-1" width="53.462890625" height="1.5" fill="#ffbb78"></rect><circle class="markmap-node-circle" cx="51.462890625" stroke="#ffbb78" r="4.5" style="display: none;"></circle><text class="markmap-node-text" x="10" dy="-5" text-anchor="start" style="fill-opacity: 1;">QR code</text></g><g class="markmap-node" transform="translate(416.654296875,-275.625)"><rect class="markmap-node-rect" y="-0.75" x="-1" width="39.56640625" height="1.5" fill="#ffbb78"></rect><circle class="markmap-node-circle" cx="37.56640625" stroke="#ffbb78" r="4.5"></circle><text class="markmap-node-text" x="10" dy="-5" text-anchor="start" style="fill-opacity: 1;">wallet</text></g><g class="markmap-node" transform="translate(416.654296875,-295.625)"><rect class="markmap-node-rect" y="-0.75" x="-1" width="41.236328125" height="1.5" fill="#ffbb78"></rect><circle class="markmap-node-circle" cx="39.236328125" stroke="#ffbb78" r="4.5" style="display: none;"></circle><text class="markmap-node-text" x="10" dy="-5" text-anchor="start" style="fill-opacity: 1;">profile</text></g><g class="markmap-node" transform="translate(416.654296875,-310.625)"><rect class="markmap-node-rect" y="-0.75" x="-1" width="48.462890625" height="1.5" fill="#ffbb78"></rect><circle class="markmap-node-circle" cx="46.462890625" stroke="#ffbb78" r="4.5" style="display: none;"></circle><text class="markmap-node-text" x="10" dy="-5" text-anchor="start" style="fill-opacity: 1;">settings</text></g><g class="markmap-node" transform="translate(287.3984375,-204.375)"><rect class="markmap-node-rect" y="-0.75" x="-1" width="71.255859375" height="1.5" fill="#ffbb78"></rect><circle class="markmap-node-circle" cx="69.255859375" stroke="#ffbb78" r="4.5"></circle><text class="markmap-node-text" x="10" dy="-5" text-anchor="start" style="fill-opacity: 1;">user account</text></g><g class="markmap-node" transform="translate(158.7041015625,-102.5)"><rect class="markmap-node-rect" y="-1" x="-1" width="70.6943359375" height="2" fill="#ffbb78"></rect><circle class="markmap-node-circle" cx="68.6943359375" stroke="#ffbb78" r="4.5"></circle><text class="markmap-node-text" x="10" dy="-5" text-anchor="start" style="fill-opacity: 1;">frontend RCI</text></g><g class="markmap-node" transform="translate(255.1572265625,-224.375)"><rect class="markmap-node-rect" y="-0.75" x="-1" width="89.966796875" height="1.5" fill="#2ca02c"></rect><circle class="markmap-node-circle" cx="87.966796875" stroke="#2ca02c" r="4.5" style="display: none;"></circle><text class="markmap-node-text" x="10" dy="-5" text-anchor="start" style="fill-opacity: 1;">offline merchants</text></g><g class="markmap-node" transform="translate(255.1572265625,-239.375)"><rect class="markmap-node-rect" y="-0.75" x="-1" width="90.15234375" height="1.5" fill="#2ca02c"></rect><circle class="markmap-node-circle" cx="88.15234375" stroke="#2ca02c" r="4.5" style="display: none;"></circle><text class="markmap-node-text" x="10" dy="-5" text-anchor="start" style="fill-opacity: 1;">online merchants</text></g><g class="markmap-node" transform="translate(255.1572265625,-254.375)"><rect class="markmap-node-rect" y="-0.75" x="-1" width="95.1474609375" height="1.5" fill="#2ca02c"></rect><circle class="markmap-node-circle" cx="93.1474609375" stroke="#2ca02c" r="4.5" style="display: none;"></circle><text class="markmap-node-text" x="10" dy="-5" text-anchor="start" style="fill-opacity: 1;">smartphone savvy</text></g><g class="markmap-node" transform="translate(255.1572265625,-269.375)"><rect class="markmap-node-rect" y="-0.75" x="-1" width="99.0439453125" height="1.5" fill="#2ca02c"></rect><circle class="markmap-node-circle" cx="97.0439453125" stroke="#2ca02c" r="4.5" style="display: none;"></circle><text class="markmap-node-text" x="10" dy="-5" text-anchor="start" style="fill-opacity: 1;">women in business</text></g><g class="markmap-node" transform="translate(158.7041015625,-246.875)"><rect class="markmap-node-rect" y="-1" x="-1" width="38.453125" height="2" fill="#2ca02c"></rect><circle class="markmap-node-circle" cx="36.453125" stroke="#2ca02c" r="4.5"></circle><text class="markmap-node-text" x="10" dy="-5" text-anchor="start" style="fill-opacity: 1;">users</text></g><g class="markmap-node" transform="translate(0,0)"><rect class="markmap-node-rect" y="-3" x="-1" width="100.7041015625" height="6" fill="#98df8a"></rect><circle class="markmap-node-circle" cx="98.7041015625" stroke="#98df8a" r="4.5"></circle><text class="markmap-node-text" x="10" dy="-5" text-anchor="start" style="fill-opacity: 1;">Zeppa.cash system</text></g></g>
</svg>
